<svg xmlns="http://www.w3.org/2000/svg" xmlns:xlink="http://www.w3.org/1999/xlink" version="1.1" x="0px" y="0px" viewBox="0 0 100 125" enable-background="new 0 0 100 100" xml:space="preserve"><g><path d="M23.9,61.9c-4.7,0-8.5,3.8-8.5,8.5s3.8,8.5,8.5,8.5s8.5-3.8,8.5-8.5S28.6,61.9,23.9,61.9z M23.9,74.8c-2.5,0-4.5-2-4.5-4.5   s2-4.5,4.5-4.5s4.5,2,4.5,4.5S26.4,74.8,23.9,74.8z"/><path d="M75.3,55c-6.3,0-11.4,5.1-11.4,11.4c0,6.3,5.1,11.4,11.4,11.4s11.4-5.1,11.4-11.4C86.6,60.1,81.5,55,75.3,55z M75.3,73.8   c-4.1,0-7.4-3.3-7.4-7.4c0-4.1,3.3-7.4,7.4-7.4s7.4,3.3,7.4,7.4C82.6,70.5,79.3,73.8,75.3,73.8z"/><path d="M96,39.4c-0.5,0-22.3,0-21.9,0c-1.1,0-2,0.9-2,2s0.9,2,2,2h2.1v2.6c-0.3,0-0.6,0-1,0c-3.5,0-6.9,0.9-9.8,2.5v-3.1   c0-3.3-2.7-6-6-6h-0.4l8.7-7.8l2.8,3.2c0.7,0.8,2,0.9,2.8,0.2c0.8-0.7,0.9-2,0.2-2.8L65,22.5c-0.7-0.8-2-0.9-2.8-0.2   c-0.8,0.7-0.9,2-0.2,2.8l3.1,3.5l-7.7,7v-2.5c0-1.1-0.9-2-2-2H43.9c-1.1,0-2,0.9-2,2v6.3H30.4v-5.7c0-3.1-2.1-5.7-4.9-6.5v-12   c0-1.1-0.9-2-2-2s-2,0.9-2,2v12c-2.8,0.9-4.9,3.4-4.9,6.5v5.7H8c-3.3,0-6,2.7-6,6v18.4c0,3.1,2.4,5.7,5.5,5.9c0,0.2,0,0.4,0,0.6   c0,9.1,7.4,16.4,16.4,16.4s16.4-7.4,16.4-16.4c0-0.2,0-0.4,0-0.6h14.9c1.6,9.6,10,17,20.1,17c11.2,0,20.4-9.1,20.4-20.4   c0-4.1-1.2-8.1-3.6-11.5V43.4H96c1.1,0,2-0.9,2-2S97.1,39.4,96,39.4z M20.7,33.7c0-1.6,1.3-2.9,2.9-2.9c1.6,0,2.9,1.3,2.9,2.9v5.7   h-5.7L20.7,33.7L20.7,33.7z M23.9,82.8c-6.9,0-12.4-5.6-12.4-12.4c0-6.9,5.6-12.4,12.4-12.4s12.4,5.6,12.4,12.4   C36.3,77.2,30.8,82.8,23.9,82.8z M23.9,53.9c-7.5,0-13.8,5-15.8,11.9H8c-1.1,0-2-0.9-2-2V45.4c0-1.1,0.9-2,2-2   c11.5,0,21.9,0,35.9,0c1.1,0,2-0.9,2-2v-6.3h7.5v6.3c0,1.1,0.9,2,2,2h4.1c1.1,0,2,0.9,2,2v6c-3.9,3.6-6.4,8.7-6.6,14.4H39.7   C37.7,58.9,31.4,53.9,23.9,53.9z M75.3,82.8c-9,0-16.4-7.3-16.4-16.4c0-9,7.3-16.4,16.4-16.4c0.9,0,1.7,0.1,2.6,0.2c0,0,0,0,0,0   c4.2,0.7,8,3,10.5,6.5c0,0,0,0,0,0c0,0,0,0,0,0c2.1,2.8,3.2,6.2,3.2,9.7C91.6,75.4,84.3,82.8,75.3,82.8z M88.1,50.6   c-2.3-1.9-5-3.2-7.9-3.9v-3.2h7.9V50.6z"/></g><text x="0" y="115" fill="#000000" font-size="5px" font-weight="bold" font-family="'Helvetica Neue', Helvetica, Arial-Unicode, Arial, Sans-serif">Created by Vectors Point</text><text x="0" y="120" fill="#000000" font-size="5px" font-weight="bold" font-family="'Helvetica Neue', Helvetica, Arial-Unicode, Arial, Sans-serif">from the Noun Project</text></svg>