<?xml version="1.0" encoding="UTF-8" standalone="no"?>
<svg
   xmlns:dc="http://purl.org/dc/elements/1.1/"
   xmlns:cc="http://creativecommons.org/ns#"
   xmlns:rdf="http://www.w3.org/1999/02/22-rdf-syntax-ns#"
   xmlns:svg="http://www.w3.org/2000/svg"
   xmlns="http://www.w3.org/2000/svg"
   xmlns:sodipodi="http://sodipodi.sourceforge.net/DTD/sodipodi-0.dtd"
   xmlns:inkscape="http://www.inkscape.org/namespaces/inkscape"
   sodipodi:docname="nounCD.svg"
   inkscape:version="1.0 (4035a4fb49, 2020-05-01)"
   id="svg8"
   version="1.1"
   viewBox="0 0 210 297"
   height="297mm"
   width="210mm">
  <defs
     id="defs2" />
  <sodipodi:namedview
     inkscape:window-maximized="1"
     inkscape:window-y="-9"
     inkscape:window-x="-9"
     inkscape:window-height="1001"
     inkscape:window-width="1920"
     showgrid="false"
     inkscape:document-rotation="0"
     inkscape:current-layer="layer1"
     inkscape:document-units="mm"
     inkscape:cy="403.94955"
     inkscape:cx="423.23601"
     inkscape:zoom="2.8"
     inkscape:pageshadow="2"
     inkscape:pageopacity="0.0"
     borderopacity="1.0"
     bordercolor="#666666"
     pagecolor="#ffffff"
     id="base" />
  <metadata
     id="metadata5">
    <rdf:RDF>
      <cc:Work
         rdf:about="">
        <dc:format>image/svg+xml</dc:format>
        <dc:type
           rdf:resource="http://purl.org/dc/dcmitype/StillImage" />
        <dc:title></dc:title>
      </cc:Work>
    </rdf:RDF>
  </metadata>
  <g
     id="layer1"
     inkscape:groupmode="layer"
     inkscape:label="Layer 1">
    <path
       style="stroke-width:0.264583"
       id="path62"
       d="M 108.47142,109.60619 H 93.125582 a 0.26458333,0.26458333 0 0 0 -0.264583,0.26458 v 13.75833 a 0.26458333,0.26458333 0 0 0 0.264583,0.26459 h 15.345838 a 0.26458333,0.26458333 0 0 0 0.26458,-0.26459 v -13.75833 a 0.26458333,0.26458333 0 0 0 -0.26458,-0.26458 z m -0.26459,0.52916 v 0.52917 h -0.52916 v -0.52917 z m -3.70416,12.17084 a 0.79374999,0.79374999 0 0 0 -0.79375,0.79375 v 0.26458 h -5.291671 v -0.26458 a 0.79375,0.79375 0 0 0 -1.5875,0 v 0.26458 h -1.852084 v -13.22917 h 1.852084 v 0.26459 a 0.79375,0.79375 0 0 0 1.5875,0 v -0.26459 h 5.291671 v 0.26459 a 0.79375,0.79375 0 0 0 1.5875,0 v -0.26459 h 1.85208 v 13.22917 h -1.85208 v -0.26458 a 0.79374999,0.79374999 0 0 0 -0.79375,-0.79375 z m -11.112505,-4.7625 h 1.058334 v 4.7625 h -1.058334 z m 1.058334,-1.5875 h -1.058334 v -4.7625 h 1.058334 z m -1.058334,0.52916 h 1.058334 v 0.52917 h -1.058334 z m 14.287505,-5.29166 h 0.52916 v 11.1125 h -0.52916 z m -2.91042,-1.05834 v 0.26459 a 0.264585,0.264585 0 0 1 -0.52917,0 v -0.26459 z m -6.879168,0 v 0.26459 a 0.2645835,0.2645835 0 0 1 -0.529167,0 v -0.26459 z m -3.439583,0 v 0.52917 h -1.058334 v -0.52917 z m -1.058334,13.22917 v -0.52917 h 1.058334 v 0.52917 z m 3.96875,0 v -0.26458 a 0.2645835,0.2645835 0 0 1 0.529167,0 v 0.26458 z m 6.879165,0 v -0.26458 a 0.264585,0.264585 0 0 1 0.52917,0 v 0.26458 z m 3.43959,0 v -0.52917 h 0.52916 v 0.52917 z" />
    <path
       style="stroke-width:0.264583"
       id="path64"
       d="m 101.06308,111.19369 a 5.5562499,5.5562499 0 1 0 5.55625,5.55625 5.5623353,5.5623353 0 0 0 -5.55625,-5.55625 z m 0,10.58333 a 5.0270833,5.0270833 0 1 1 5.02709,-5.02708 5.0326395,5.0326395 0 0 1 -5.02709,5.02708 z" />
    <path
       style="stroke-width:0.264583"
       id="path66"
       d="m 101.06308,115.95619 a 0.79374999,0.79374999 0 1 0 0.79375,0.79375 0.79374999,0.79374999 0 0 0 -0.79375,-0.79375 z m 0,1.05833 a 0.26458333,0.26458333 0 1 1 0.26459,-0.26458 0.26458333,0.26458333 0 0 1 -0.26459,0.26458 z" />
    <path
       style="stroke-width:0.264583"
       id="path68"
       d="m 101.06308,114.89785 a 1.8520833,1.8520833 0 1 0 1.85209,1.85209 1.8542,1.8542 0 0 0 -1.85209,-1.85209 z m 0,3.175 a 1.3229166,1.3229166 0 1 1 1.32292,-1.32291 1.3245041,1.3245041 0 0 1 -1.32292,1.32291 z" />
    <rect
       style="stroke-width:0.264583"
       id="rect70"
       height="0.52916664"
       width="2.1166666"
       y="117.01452"
       x="96.565163" />
    <rect
       style="stroke-width:0.264583"
       id="rect72"
       height="0.52916664"
       width="2.1166666"
       y="115.95618"
       x="96.565163" />
    <rect
       style="stroke-width:0.264583"
       id="rect74"
       height="0.52916664"
       width="2.1166666"
       y="117.01452"
       x="103.44433" />
    <rect
       style="stroke-width:0.264583"
       id="rect76"
       height="0.52916664"
       width="2.1166666"
       y="115.95618"
       x="103.44433" />
    <rect
       style="stroke-width:0.264583"
       id="rect78"
       height="0.52916664"
       width="0.52916664"
       y="110.66452"
       x="95.506828" />
    <rect
       style="stroke-width:0.264583"
       id="rect80"
       height="0.52916664"
       width="0.52916664"
       y="122.30618"
       x="95.506828" />
    <rect
       style="stroke-width:0.264583"
       id="rect82"
       height="0.52916664"
       width="0.52916664"
       y="122.30618"
       x="106.09016" />
    <rect
       style="stroke-width:0.264583"
       id="rect84"
       height="0.52916664"
       width="0.52916664"
       y="110.66452"
       x="106.09016" />
    <rect
       style="stroke-width:0.264583"
       id="rect86"
       height="0.52916664"
       width="0.52916664"
       y="119.13119"
       x="99.740166" />
    <rect
       style="stroke-width:0.264583"
       id="rect88"
       height="0.52916664"
       width="0.52916664"
       y="119.13119"
       x="100.7985" />
    <rect
       style="stroke-width:0.264583"
       id="rect90"
       height="0.52916664"
       width="0.52916664"
       y="119.13119"
       x="101.85683" />
    <rect
       style="stroke-width:0.264583"
       id="rect92"
       height="0.52916664"
       width="0.52916664"
       y="120.18952"
       x="99.740166" />
    <rect
       style="stroke-width:0.264583"
       id="rect94"
       height="0.52916664"
       width="0.52916664"
       y="120.18952"
       x="100.7985" />
    <rect
       style="stroke-width:0.264583"
       id="rect96"
       height="0.52916664"
       width="0.52916664"
       y="120.18952"
       x="101.85683" />
  </g>
</svg>
