<?xml version="1.0" encoding="UTF-8" standalone="no"?>
<svg
   xmlns:dc="http://purl.org/dc/elements/1.1/"
   xmlns:cc="http://creativecommons.org/ns#"
   xmlns:rdf="http://www.w3.org/1999/02/22-rdf-syntax-ns#"
   xmlns:svg="http://www.w3.org/2000/svg"
   xmlns="http://www.w3.org/2000/svg"
   xmlns:sodipodi="http://sodipodi.sourceforge.net/DTD/sodipodi-0.dtd"
   xmlns:inkscape="http://www.inkscape.org/namespaces/inkscape"
   sodipodi:docname="screengraphic.svg"
   inkscape:version="1.0 (4035a4fb49, 2020-05-01)"
   id="svg8"
   version="1.1"
   viewBox="0 0 210 297"
   height="297mm"
   width="210mm">
  <defs
     id="defs2" />
  <sodipodi:namedview
     inkscape:window-maximized="1"
     inkscape:window-y="-9"
     inkscape:window-x="-9"
     inkscape:window-height="1001"
     inkscape:window-width="1920"
     showgrid="false"
     inkscape:document-rotation="0"
     inkscape:current-layer="g56"
     inkscape:document-units="mm"
     inkscape:cy="518.13079"
     inkscape:cx="281.38791"
     inkscape:zoom="0.7"
     inkscape:pageshadow="2"
     inkscape:pageopacity="0.0"
     borderopacity="1.0"
     bordercolor="#666666"
     pagecolor="#ffffff"
     id="base" />
  <metadata
     id="metadata5">
    <rdf:RDF>
      <cc:Work
         rdf:about="">
        <dc:format>image/svg+xml</dc:format>
        <dc:type
           rdf:resource="http://purl.org/dc/dcmitype/StillImage" />
        <dc:title></dc:title>
      </cc:Work>
    </rdf:RDF>
  </metadata>
  <g
     id="layer1"
     inkscape:groupmode="layer"
     inkscape:label="Layer 1">
    <g
       transform="matrix(1.5963215,0,0,1.5963215,9.6282053,6.2379838)"
       id="g56">
      <g
         style="fill:none;stroke:#000000"
         transform="matrix(0.64581467,0,0,0.64581467,-7.0002171,-12.10957)"
         id="g36">
        <path
           style="fill:none;stroke:#000000"
           d="m 23.9,61.9 c -4.7,0 -8.5,3.8 -8.5,8.5 0,4.7 3.8,8.5 8.5,8.5 4.7,0 8.5,-3.8 8.5,-8.5 0,-4.7 -3.8,-8.5 -8.5,-8.5 z m 0,12.9 c -2.5,0 -4.5,-2 -4.5,-4.5 0,-2.5 2,-4.5 4.5,-4.5 2.5,0 4.5,2 4.5,4.5 0,2.5 -2,4.5 -4.5,4.5 z"
           id="path30" />
        <path
           style="fill:none;stroke:#000000"
           d="m 75.3,55 c -6.3,0 -11.4,5.1 -11.4,11.4 0,6.3 5.1,11.4 11.4,11.4 6.3,0 11.4,-5.1 11.4,-11.4 C 86.6,60.1 81.5,55 75.3,55 Z m 0,18.8 c -4.1,0 -7.4,-3.3 -7.4,-7.4 0,-4.1 3.3,-7.4 7.4,-7.4 4.1,0 7.4,3.3 7.4,7.4 -0.1,4.1 -3.4,7.4 -7.4,7.4 z"
           id="path32" />
        <path
           style="fill:none;stroke:#000000"
           d="m 96,39.4 c -0.5,0 -22.3,0 -21.9,0 -1.1,0 -2,0.9 -2,2 0,1.1 0.9,2 2,2 h 2.1 V 46 c -0.3,0 -0.6,0 -1,0 -3.5,0 -6.9,0.9 -9.8,2.5 v -3.1 c 0,-3.3 -2.7,-6 -6,-6 H 59 l 8.7,-7.8 2.8,3.2 c 0.7,0.8 2,0.9 2.8,0.2 0.8,-0.7 0.9,-2 0.2,-2.8 L 65,22.5 c -0.7,-0.8 -2,-0.9 -2.8,-0.2 -0.8,0.7 -0.9,2 -0.2,2.8 l 3.1,3.5 -7.7,7 v -2.5 c 0,-1.1 -0.9,-2 -2,-2 H 43.9 c -1.1,0 -2,0.9 -2,2 v 6.3 H 30.4 v -5.7 c 0,-3.1 -2.1,-5.7 -4.9,-6.5 v -12 c 0,-1.1 -0.9,-2 -2,-2 -1.1,0 -2,0.9 -2,2 v 12 c -2.8,0.9 -4.9,3.4 -4.9,6.5 v 5.7 H 8 c -3.3,0 -6,2.7 -6,6 v 18.4 c 0,3.1 2.4,5.7 5.5,5.9 0,0.2 0,0.4 0,0.6 0,9.1 7.4,16.4 16.4,16.4 9,0 16.4,-7.4 16.4,-16.4 0,-0.2 0,-0.4 0,-0.6 h 14.9 c 1.6,9.6 10,17 20.1,17 11.2,0 20.4,-9.1 20.4,-20.4 0,-4.1 -1.2,-8.1 -3.6,-11.5 V 43.4 H 96 c 1.1,0 2,-0.9 2,-2 0,-1.1 -0.9,-2 -2,-2 z M 20.7,33.7 c 0,-1.6 1.3,-2.9 2.9,-2.9 1.6,0 2.9,1.3 2.9,2.9 v 5.7 h -5.7 z m 3.2,49.1 C 17,82.8 11.5,77.2 11.5,70.4 11.5,63.5 17.1,58 23.9,58 c 6.8,0 12.4,5.6 12.4,12.4 0,6.8 -5.5,12.4 -12.4,12.4 z m 0,-28.9 c -7.5,0 -13.8,5 -15.8,11.9 H 8 c -1.1,0 -2,-0.9 -2,-2 V 45.4 c 0,-1.1 0.9,-2 2,-2 11.5,0 21.9,0 35.9,0 1.1,0 2,-0.9 2,-2 v -6.3 h 7.5 v 6.3 c 0,1.1 0.9,2 2,2 h 4.1 c 1.1,0 2,0.9 2,2 v 6 C 57.6,55 55.1,60.1 54.9,65.8 H 39.7 C 37.7,58.9 31.4,53.9 23.9,53.9 Z m 51.4,28.9 c -9,0 -16.4,-7.3 -16.4,-16.4 0,-9 7.3,-16.4 16.4,-16.4 0.9,0 1.7,0.1 2.6,0.2 0,0 0,0 0,0 4.2,0.7 8,3 10.5,6.5 0,0 0,0 0,0 0,0 0,0 0,0 2.1,2.8 3.2,6.2 3.2,9.7 0,9 -7.3,16.4 -16.3,16.4 z M 88.1,50.6 c -2.3,-1.9 -5,-3.2 -7.9,-3.9 v -3.2 h 7.9 z"
           id="path34" />
      </g>
      <text
         x="0"
         y="115"
         fill="#000000"
         font-size="5px"
         font-weight="bold"
         font-family="'Helvetica Neue', Helvetica, Arial-Unicode, Arial, Sans-serif"
         id="text38" />
      <text
         x="0"
         y="120"
         fill="#000000"
         font-size="5px"
         font-weight="bold"
         font-family="'Helvetica Neue', Helvetica, Arial-Unicode, Arial, Sans-serif"
         id="text40" />
    </g>
  </g>
</svg>
